<?xml version="1.0" encoding="UTF-8" standalone="no"?>
<!-- Created with Inkscape (http://www.inkscape.org/) -->

<svg
   xmlns:dc="http://purl.org/dc/elements/1.1/"
   xmlns:cc="http://creativecommons.org/ns#"
   xmlns:rdf="http://www.w3.org/1999/02/22-rdf-syntax-ns#"
   xmlns:svg="http://www.w3.org/2000/svg"
   xmlns="http://www.w3.org/2000/svg"
   xmlns:sodipodi="http://sodipodi.sourceforge.net/DTD/sodipodi-0.dtd"
   xmlns:inkscape="http://www.inkscape.org/namespaces/inkscape"
   width="20mm"
   height="20mm"
   viewBox="0 0 70.866142 70.866141"
   id="svg2"
   version="1.1"
   inkscape:version="0.91 r13725"
   sodipodi:docname="ambush.svg"
   inkscape:export-filename="/home/blaize/proj/rpgdice/d20/d20.svg.png"
   inkscape:export-xdpi="1444.9778"
   inkscape:export-ydpi="1444.9778">
  <defs
     id="defs4" />
  <sodipodi:namedview
     id="base"
     pagecolor="#ffffff"
     bordercolor="#000000"
     borderopacity="1"
     inkscape:pageopacity="0.0"
     inkscape:pageshadow="2"
     inkscape:zoom="5.6"
     inkscape:cx="95.01256"
     inkscape:cy="29.734221"
     inkscape:document-units="px"
     inkscape:current-layer="layer1"
     showgrid="true"
     inkscape:window-width="1600"
     inkscape:window-height="853"
     inkscape:window-x="0"
     inkscape:window-y="0"
     inkscape:window-maximized="1"
     gridtolerance="1"
     guidetolerance="1"
     objecttolerance="1"
     showguides="false">
    <inkscape:grid
       type="xygrid"
       id="grid4136"
       spacingx="3.5433071"
       empspacing="5"
       units="mm"
       spacingy="3.543307" />
  </sodipodi:namedview>
  <metadata
     id="metadata7">
    <rdf:RDF>
      <cc:Work
         rdf:about="">
        <dc:format>image/svg+xml</dc:format>
        <dc:type
           rdf:resource="http://purl.org/dc/dcmitype/StillImage" />
        <dc:title></dc:title>
      </cc:Work>
    </rdf:RDF>
  </metadata>
  <g
     inkscape:label="Layer 1"
     inkscape:groupmode="layer"
     id="layer1"
     transform="translate(0,-981.49606)">
    <path
       style="color:#000000;clip-rule:nonzero;display:inline;overflow:visible;visibility:visible;opacity:1;isolation:auto;mix-blend-mode:normal;color-interpolation:sRGB;color-interpolation-filters:linearRGB;solid-color:#000000;solid-opacity:1;fill:#000000;fill-opacity:0.99180328;fill-rule:nonzero;stroke:none;stroke-width:1;stroke-linecap:butt;stroke-linejoin:miter;stroke-miterlimit:4;stroke-dasharray:none;stroke-dashoffset:0;stroke-opacity:1;color-rendering:auto;image-rendering:auto;shape-rendering:auto;text-rendering:auto;enable-background:accumulate"
       d="M 35.611328 0.33007812 A 35.254501 35.357143 0 0 0 0.35742188 35.6875 A 35.254501 35.357143 0 0 0 35.611328 71.044922 A 35.254501 35.357143 0 0 0 70.865234 35.6875 A 35.254501 35.357143 0 0 0 35.611328 0.33007812 z M 28.695312 9.4570312 C 28.716455 9.4570312 29.427592 10.708531 30.277344 12.238281 L 31.824219 15.019531 L 31.236328 16.513672 C 30.773324 17.691192 30.677978 18.079131 30.791016 18.337891 C 30.869939 18.518631 32.558607 21.580778 34.542969 25.142578 C 36.527323 28.704278 38.177658 31.725622 38.210938 31.857422 C 38.257615 32.042322 38.075873 32.13965 37.414062 32.28125 C 36.942476 32.38325 36.495442 32.458984 36.419922 32.458984 C 36.344438 32.455784 34.631226 29.476991 32.613281 25.837891 L 28.945312 19.220703 L 27.304688 18.964844 C 26.402913 18.824744 25.649746 18.690062 25.628906 18.664062 C 25.392277 18.364262 22.615742 13.202744 22.664062 13.152344 C 22.700112 13.114944 23.629469 13.222915 24.730469 13.390625 C 25.831478 13.558235 26.788079 13.695312 26.855469 13.695312 C 26.922877 13.695312 27.354774 12.741622 27.816406 11.576172 C 28.278038 10.410612 28.674192 9.4570312 28.695312 9.4570312 z M 43.359375 10.617188 C 43.418576 10.687207 43.608019 12.104518 43.78125 13.767578 L 44.097656 16.792969 L 42.917969 18.019531 L 41.740234 19.246094 L 42.333984 24.910156 C 42.660772 28.024856 42.966652 30.826472 43.013672 31.138672 L 43.097656 31.707031 L 42.0625 31.707031 C 41.493175 31.707031 41.029297 31.652031 41.029297 31.582031 C 41.029297 31.336631 39.860769 20.271059 39.787109 19.818359 C 39.723748 19.429159 39.503539 19.226853 38.357422 18.501953 L 37.003906 17.646484 L 36.673828 14.515625 C 36.492875 12.793855 36.37269 11.356866 36.40625 11.322266 C 36.439824 11.287486 37.294715 11.781325 38.306641 12.421875 L 40.146484 13.587891 L 41.699219 12.039062 C 42.552813 11.186963 43.300215 10.546988 43.359375 10.617188 z M 19.632812 16.980469 L 21.896484 19.142578 L 24.160156 21.302734 L 24.160156 23.072266 L 24.160156 24.841797 L 28.650391 29.117188 C 31.120323 31.467988 33.142578 33.442859 33.142578 33.505859 C 33.142578 33.568859 32.768151 33.785681 32.308594 33.988281 C 31.849028 34.190981 31.431139 34.375437 31.380859 34.398438 C 31.310246 34.431537 26.913373 30.321094 23.0625 26.621094 L 22.691406 26.265625 L 21.089844 26.550781 L 19.486328 26.837891 L 19.048828 26.425781 C 16.280345 23.817281 14.922199 22.469828 15.005859 22.423828 C 15.061519 22.392728 16.042898 22.206766 17.1875 22.009766 C 18.793079 21.733266 19.27185 21.598722 19.28125 21.419922 C 19.287812 21.292422 19.369051 20.241284 19.462891 19.083984 L 19.632812 16.980469 z M 54.832031 30.605469 L 54.832031 30.607422 C 56.075165 30.576022 57.180506 30.932041 57.873047 31.681641 C 58.368037 32.217341 58.803163 33.269378 58.919922 34.205078 C 59.191191 36.379178 57.707492 39.564016 55.527344 41.478516 C 52.632719 44.020416 48.852694 44.418528 47.175781 42.361328 L 46.697266 41.773438 L 46.794922 42.683594 C 47.464751 48.818294 50.335252 55.357487 54.583984 60.429688 L 55.376953 61.376953 L 52.095703 61.376953 L 48.814453 61.376953 L 48.238281 60.65625 C 45.990772 57.85605 44.151326 54.011378 42.253906 48.142578 L 41.320312 45.255859 L 40.408203 45.28125 C 38.645889 45.33175 35.534691 46.531391 33.457031 47.962891 C 32.375154 48.708291 31.097656 49.825691 31.097656 50.025391 C 31.097656 50.095691 33.085865 52.560053 35.515625 55.501953 C 37.945393 58.443853 40.024531 60.969181 40.134766 61.113281 C 40.324634 61.362381 39.616074 61.375 26.728516 61.375 L 13.125 61.375 L 13.294922 61.033203 C 13.388893 60.845903 14.022268 59.656319 14.701172 58.386719 L 15.935547 56.076172 L 22.117188 56.076172 L 28.300781 56.076172 L 26.667969 54.375 C 25.377588 53.0286 24.909313 52.416372 24.421875 51.451172 C 22.957636 48.551772 23.047289 45.778431 24.703125 42.832031 C 25.476777 41.455431 27.854876 38.999172 29.490234 37.888672 C 35.184811 34.021472 42.763905 32.716878 46.878906 34.892578 C 47.601543 35.274778 47.638288 35.269837 47.921875 34.773438 C 48.324894 34.068038 49.963276 32.494869 50.960938 31.855469 C 52.207027 31.057069 53.588896 30.637469 54.832031 30.605469 z "
       transform="translate(0,981.49606)"
       id="path3348" />
    <g
       style="font-style:normal;font-variant:normal;font-weight:normal;font-stretch:normal;font-size:70px;line-height:125%;font-family:'Linux Libertine Display O';-inkscape-font-specification:'Linux Libertine Display O, Normal';text-align:start;letter-spacing:0px;word-spacing:0px;writing-mode:lr-tb;text-anchor:start;fill:#ffffff;fill-opacity:1;stroke:none;stroke-width:1px;stroke-linecap:butt;stroke-linejoin:miter;stroke-opacity:1"
       id="text4140-3-2"
       transform="translate(-7.2423854,0)" />
  </g>
</svg>
