<?xml version="1.0" encoding="UTF-8" standalone="no"?>
<!-- Created with Inkscape (http://www.inkscape.org/) -->

<svg
   xmlns:dc="http://purl.org/dc/elements/1.1/"
   xmlns:cc="http://creativecommons.org/ns#"
   xmlns:rdf="http://www.w3.org/1999/02/22-rdf-syntax-ns#"
   xmlns:svg="http://www.w3.org/2000/svg"
   xmlns="http://www.w3.org/2000/svg"
   xmlns:sodipodi="http://sodipodi.sourceforge.net/DTD/sodipodi-0.dtd"
   xmlns:inkscape="http://www.inkscape.org/namespaces/inkscape"
   width="20mm"
   height="20mm"
   viewBox="0 0 70.866142 70.866141"
   id="svg2"
   version="1.1"
   inkscape:version="0.91 r13725"
   sodipodi:docname="initiative.svg"
   inkscape:export-filename="/home/blaize/proj/rpgdice/numbers/initiative.png"
   inkscape:export-xdpi="1444.9778"
   inkscape:export-ydpi="1444.9778">
  <defs
     id="defs4" />
  <sodipodi:namedview
     id="base"
     pagecolor="#ffffff"
     bordercolor="#000000"
     borderopacity="1"
     inkscape:pageopacity="0.0"
     inkscape:pageshadow="2"
     inkscape:zoom="5.9016835"
     inkscape:cx="11.122582"
     inkscape:cy="23.318776"
     inkscape:document-units="px"
     inkscape:current-layer="layer1"
     showgrid="true"
     inkscape:window-width="1600"
     inkscape:window-height="853"
     inkscape:window-x="0"
     inkscape:window-y="0"
     inkscape:window-maximized="1"
     gridtolerance="1"
     guidetolerance="1"
     objecttolerance="1">
    <inkscape:grid
       type="xygrid"
       id="grid4136"
       spacingx="3.5433071"
       empspacing="5"
       units="mm"
       spacingy="3.543307" />
  </sodipodi:namedview>
  <metadata
     id="metadata7">
    <rdf:RDF>
      <cc:Work
         rdf:about="">
        <dc:format>image/svg+xml</dc:format>
        <dc:type
           rdf:resource="http://purl.org/dc/dcmitype/StillImage" />
        <dc:title />
      </cc:Work>
    </rdf:RDF>
  </metadata>
  <g
     inkscape:label="Layer 1"
     inkscape:groupmode="layer"
     id="layer1"
     transform="translate(0,-981.49606)">
    <path
       style="color:#000000;clip-rule:nonzero;display:inline;overflow:visible;visibility:visible;opacity:1;isolation:auto;mix-blend-mode:normal;color-interpolation:sRGB;color-interpolation-filters:linearRGB;solid-color:#000000;solid-opacity:1;fill:#000000;fill-opacity:0.99180328;fill-rule:nonzero;stroke:none;stroke-width:1;stroke-linecap:butt;stroke-linejoin:miter;stroke-miterlimit:4;stroke-dasharray:none;stroke-dashoffset:0;stroke-opacity:1;color-rendering:auto;image-rendering:auto;shape-rendering:auto;text-rendering:auto;enable-background:accumulate"
       d="M 35.611328 0.33007812 A 35.254501 35.357143 0 0 0 0.35742188 35.6875 A 35.254501 35.357143 0 0 0 35.611328 71.044922 A 35.254501 35.357143 0 0 0 70.865234 35.6875 A 35.254501 35.357143 0 0 0 35.611328 0.33007812 z M 48.71875 10.488281 L 48.71875 10.490234 C 49.19669 10.493474 49.481561 10.592425 50.113281 10.890625 C 52.467991 12.002225 53.980541 14.772194 53.994141 17.996094 C 54.003271 20.158834 53.441472 21.8021 51.982422 23.875 L 51.292969 24.853516 L 52.537109 25.246094 C 54.620469 25.903394 55.402155 26.447234 56.390625 27.927734 C 58.248615 30.710634 59.179907 35.052319 59.373047 41.824219 L 59.462891 44.947266 L 57.03125 44.947266 L 54.601562 44.947266 L 54.601562 45.398438 C 54.601563 46.165338 53.399472 62.01905 53.326172 62.21875 C 53.272742 62.36425 52.083602 62.40625 48.076172 62.40625 L 42.894531 62.40625 L 42.810547 61.916016 C 42.764397 61.646916 42.6808 60.540478 42.625 59.455078 L 42.523438 57.480469 L 42.880859 57.398438 C 43.077109 57.352637 44.851409 57.091006 46.824219 56.816406 C 49.276509 56.475106 50.277648 56.282891 49.986328 56.212891 C 49.751978 56.156391 47.966904 55.891047 46.021484 55.623047 C 44.076064 55.355147 42.441972 55.096875 42.388672 55.046875 C 42.335352 54.997175 42.245 54.041328 42.1875 52.923828 L 42.082031 50.892578 L 45.292969 50.458984 C 49.485399 49.894084 50.558859 49.734641 50.505859 49.681641 C 50.481859 49.657741 48.598816 49.384619 46.322266 49.074219 C 44.045716 48.763719 42.099574 48.444234 41.996094 48.365234 C 41.885244 48.280334 41.807391 47.872047 41.806641 47.373047 C 41.805941 46.907147 41.763137 46.171028 41.710938 45.736328 L 41.615234 44.947266 L 39.580078 44.947266 C 38.460228 44.947266 37.571822 44.916859 37.607422 44.880859 C 37.643032 44.845259 40.275871 44.437709 43.457031 43.974609 C 46.638191 43.511509 49.258297 43.11475 49.279297 43.09375 C 49.300257 43.07285 46.763038 42.694906 43.642578 42.253906 C 40.522128 41.812906 37.784291 41.418 37.556641 41.375 C 37.142531 41.2967 37.142531 41.295647 37.144531 39.998047 C 37.145801 39.284047 37.205744 38.607141 37.277344 38.494141 C 37.369764 38.348241 39.202406 38.068497 43.597656 37.529297 C 47.002206 37.111497 49.769247 36.752422 49.748047 36.732422 C 49.726867 36.712122 47.136014 36.383753 43.990234 36.001953 C 40.844454 35.620153 38.117901 35.273422 37.931641 35.232422 C 37.514511 35.139622 37.500491 34.805269 37.837891 33.105469 C 38.041501 32.079769 38.135164 31.861828 38.402344 31.798828 C 38.578564 31.757428 40.980564 31.399253 43.740234 31.001953 C 46.653484 30.582453 48.640909 30.234875 48.480469 30.171875 C 48.328479 30.112375 46.189383 29.775728 43.726562 29.423828 C 41.263753 29.071928 39.250953 28.745219 39.251953 28.699219 C 39.260303 28.390519 40.842046 26.55325 41.441406 26.15625 C 42.404596 25.51835 43.110631 25.319956 46.744141 24.660156 C 48.424581 24.354956 49.738462 24.083594 49.664062 24.058594 C 49.589682 24.033794 48.283046 23.793537 46.759766 23.523438 L 43.990234 23.033203 L 43.513672 22.0625 C 43.054692 21.1273 42.755428 20.006363 42.673828 18.914062 L 42.634766 18.394531 L 46.775391 17.695312 C 49.448441 17.243912 50.780119 16.961437 50.537109 16.898438 C 50.330149 16.844938 48.705631 16.564138 46.925781 16.273438 C 42.860721 15.609337 43.011719 15.6467 43.011719 15.3125 C 43.011719 14.7522 44.132446 12.802034 44.884766 12.052734 C 45.859746 11.081834 46.86664 10.608672 48.15625 10.513672 C 48.37852 10.497272 48.55944 10.487281 48.71875 10.488281 z M 42.779297 11.099609 C 42.813637 11.134009 42.588344 11.565447 42.277344 12.060547 C 41.659594 13.043847 41.162508 14.219231 40.892578 15.332031 C 40.738188 15.968741 40.674846 16.044344 40.322266 16.027344 C 39.115656 15.968444 10.980724 13.672047 10.740234 13.623047 C 10.581934 13.590847 15.612319 12.995781 25.230469 12.300781 C 34.848619 11.605881 42.744897 11.065609 42.779297 11.099609 z M 40.490234 17.847656 C 40.552334 17.851056 40.607328 18.24266 40.611328 18.71875 C 40.618218 19.48265 41.100745 21.67905 41.421875 22.40625 C 41.524235 22.63835 41.451914 22.667344 40.808594 22.652344 C 39.787704 22.628244 8.1452388 20.303281 7.9492188 20.238281 C 7.8211787 20.195581 40.088374 17.824656 40.490234 17.847656 z M 40.226562 24.447266 L 39.519531 25.068359 C 38.726871 25.765459 37.414661 27.636578 37.144531 28.455078 C 36.982491 28.946678 36.922016 28.991609 36.416016 28.974609 C 35.403606 28.941609 8.1098456 26.915328 7.9472656 26.861328 C 7.8593156 26.832028 14.714037 26.309119 23.179688 25.699219 C 31.645338 25.089319 38.945081 24.556578 39.400391 24.517578 L 40.226562 24.447266 z M 36.035156 31.447266 C 36.066836 31.478866 35.99465 31.971769 35.875 32.542969 C 35.75545 33.113569 35.610934 34.005837 35.552734 34.523438 L 35.447266 35.462891 L 34.601562 35.445312 C 33.594603 35.423413 8.4490406 33.571281 8.0253906 33.488281 C 7.8643106 33.456481 14.087809 32.971356 21.855469 32.410156 C 29.623129 31.849056 36.003456 31.415266 36.035156 31.447266 z M 35.085938 37.720703 C 35.212608 37.720703 35.213661 39.437831 35.087891 40.769531 C 35.031101 41.370831 34.922719 41.777578 34.824219 41.767578 C 33.849349 41.667278 8.89987 39.847891 8.40625 39.837891 C 8.04062 39.832891 7.7723469 39.797766 7.8105469 39.759766 C 7.8614969 39.708866 34.454907 37.720703 35.085938 37.720703 z M 35.035156 44.3125 L 35.035156 45.609375 L 35.035156 46.904297 L 37.351562 46.904297 C 39.946863 46.904297 39.851562 46.860022 39.851562 48.044922 L 39.851562 48.708984 L 39.287109 48.689453 C 38.976669 48.678953 32.050674 48.175712 23.896484 47.570312 C 15.742294 46.964912 8.77188 46.460938 8.40625 46.460938 C 8.04063 46.455938 7.7734 46.419859 7.8125 46.380859 C 7.85155 46.341759 13.535479 45.90355 20.443359 45.40625 C 27.351239 44.90905 33.460741 44.460203 34.019531 44.408203 L 35.035156 44.3125 z M 39.5625 50.666016 C 40.01394 50.666016 39.990257 50.545072 40.242188 54.013672 L 40.337891 55.332031 L 39.529297 55.3125 C 39.084887 55.302 32.050674 54.798759 23.896484 54.193359 C 15.742294 53.587959 8.77188 53.082031 8.40625 53.082031 C 8.04063 53.077031 7.7729 53.041953 7.8125 53.001953 C 7.88079 52.933653 38.70272 50.666016 39.5625 50.666016 z M 40.419922 57.171875 L 40.515625 58.470703 C 40.568065 59.186003 40.652072 60.263081 40.701172 60.863281 L 40.789062 61.955078 L 39.755859 61.935547 C 39.187339 61.925047 32.050674 61.419853 23.896484 60.814453 C 15.742294 60.209053 12.77188 59.705078 12.40625 59.705078 C 12.04063 59.700078 11.7729 59.665 11.8125 59.625 C 11.85213 59.5854 15.383537 58.874206 24.029297 58.253906 C 32.675047 57.633606 39.571637 57.269375 39.873047 57.234375 L 40.419922 57.171875 z "
       transform="translate(0,981.49606)"
       id="path3348" />
    <g
       style="font-style:normal;font-variant:normal;font-weight:normal;font-stretch:normal;font-size:70px;line-height:125%;font-family:'Linux Libertine Display O';-inkscape-font-specification:'Linux Libertine Display O, Normal';text-align:start;letter-spacing:0px;word-spacing:0px;writing-mode:lr-tb;text-anchor:start;fill:#ffffff;fill-opacity:1;stroke:none;stroke-width:1px;stroke-linecap:butt;stroke-linejoin:miter;stroke-opacity:1"
       id="text4140-3-2"
       transform="translate(-7.2423854,0)" />
  </g>
</svg>
