<?xml version="1.0" encoding="UTF-8" standalone="no"?>
<!-- Created with Inkscape (http://www.inkscape.org/) -->

<svg
   xmlns:dc="http://purl.org/dc/elements/1.1/"
   xmlns:cc="http://creativecommons.org/ns#"
   xmlns:rdf="http://www.w3.org/1999/02/22-rdf-syntax-ns#"
   xmlns:svg="http://www.w3.org/2000/svg"
   xmlns="http://www.w3.org/2000/svg"
   xmlns:sodipodi="http://sodipodi.sourceforge.net/DTD/sodipodi-0.dtd"
   xmlns:inkscape="http://www.inkscape.org/namespaces/inkscape"
   width="20mm"
   height="20mm"
   viewBox="0 0 70.866142 70.866141"
   id="svg2"
   version="1.1"
   inkscape:version="0.91 r13725"
   sodipodi:docname="non_combat2.svg"
   inkscape:export-filename="/home/blaize/proj/rpgdice/numbers/non_combat2.png"
   inkscape:export-xdpi="1444.9778"
   inkscape:export-ydpi="1444.9778">
  <defs
     id="defs4" />
  <sodipodi:namedview
     id="base"
     pagecolor="#ffffff"
     bordercolor="#000000"
     borderopacity="1"
     inkscape:pageopacity="0.0"
     inkscape:pageshadow="2"
     inkscape:zoom="3.959798"
     inkscape:cx="7.5707594"
     inkscape:cy="53.114805"
     inkscape:document-units="px"
     inkscape:current-layer="layer1"
     showgrid="true"
     inkscape:window-width="1600"
     inkscape:window-height="853"
     inkscape:window-x="0"
     inkscape:window-y="0"
     inkscape:window-maximized="1"
     gridtolerance="1"
     guidetolerance="1"
     objecttolerance="1">
    <inkscape:grid
       type="xygrid"
       id="grid4136"
       spacingx="3.5433071"
       empspacing="5"
       units="mm"
       spacingy="3.543307" />
  </sodipodi:namedview>
  <metadata
     id="metadata7">
    <rdf:RDF>
      <cc:Work
         rdf:about="">
        <dc:format>image/svg+xml</dc:format>
        <dc:type
           rdf:resource="http://purl.org/dc/dcmitype/StillImage" />
        <dc:title />
      </cc:Work>
    </rdf:RDF>
  </metadata>
  <g
     inkscape:label="Layer 1"
     inkscape:groupmode="layer"
     id="layer1"
     transform="translate(0,-981.49606)">
    <path
       style="color:#000000;clip-rule:nonzero;display:inline;overflow:visible;visibility:visible;opacity:1;isolation:auto;mix-blend-mode:normal;color-interpolation:sRGB;color-interpolation-filters:linearRGB;solid-color:#000000;solid-opacity:1;fill:#000000;fill-opacity:0.99180328;fill-rule:nonzero;stroke:none;stroke-width:1;stroke-linecap:butt;stroke-linejoin:miter;stroke-miterlimit:4;stroke-dasharray:none;stroke-dashoffset:0;stroke-opacity:1;color-rendering:auto;image-rendering:auto;shape-rendering:auto;text-rendering:auto;enable-background:accumulate"
       d="M 35.611328 0.33007812 A 35.254501 35.357143 0 0 0 0.35742188 35.6875 A 35.254501 35.357143 0 0 0 35.611328 71.044922 A 35.254501 35.357143 0 0 0 70.865234 35.6875 A 35.254501 35.357143 0 0 0 35.611328 0.33007812 z M 15.625 10.248047 C 15.683504 10.199657 55.091702 10.396412 55.138672 10.445312 C 55.161872 10.469523 55.176928 11.09845 55.173828 11.84375 L 55.169922 13.199219 L 54.716797 13.214844 C 54.468326 13.222704 45.746976 13.177987 35.332031 13.117188 C 24.917104 13.056388 16.216334 13.016897 15.998047 13.029297 C 15.77966 13.042297 15.598348 13.030659 15.597656 13.005859 C 15.577366 12.408569 15.59836 10.270047 15.625 10.248047 z M 18.458984 15.285156 C 18.572699 15.262956 19.099335 15.263756 19.628906 15.285156 L 20.591797 15.322266 L 20.597656 16.472656 C 20.600956 17.104636 20.601456 19.829997 20.597656 22.529297 L 20.589844 27.4375 L 21.222656 27.951172 C 22.332841 28.852472 22.693423 31.153997 21.666016 30.779297 C 20.563903 30.377397 19.033578 30.290059 17.970703 30.568359 C 17.380302 30.722859 16.869601 30.849844 16.837891 30.839844 C 16.806189 30.834744 16.739726 30.538741 16.691406 30.181641 C 16.579525 29.354941 16.988333 28.448263 17.710938 27.914062 L 18.230469 27.53125 L 18.242188 21.427734 C 18.249742 17.115634 18.3129 15.313556 18.458984 15.285156 z M 27.605469 15.320312 C 34.14444 15.314289 47.049672 15.426529 47.125 15.527344 C 47.294551 15.754384 46.735025 19.677762 46.240234 21.726562 C 45.203936 26.017663 43.353109 29.65755 41.03125 31.96875 C 39.623317 33.37015 37.301865 34.476562 35.789062 34.476562 C 34.474761 34.472062 34.229788 34.441206 33.490234 34.191406 C 28.669477 32.562006 24.833588 25.666881 23.917969 16.988281 C 23.829179 16.147711 23.819568 15.419294 23.898438 15.371094 C 23.952592 15.338009 25.425812 15.32232 27.605469 15.320312 z M 51.273438 15.402344 C 51.611805 15.40821 51.982258 15.437172 52.238281 15.482422 C 52.408984 15.512382 52.527817 15.548744 52.554688 15.589844 C 52.609028 15.672674 52.645216 18.41708 52.634766 21.6875 C 52.624322 24.9576 52.666216 27.660359 52.728516 27.693359 C 53.708912 28.219759 54.360737 29.533594 54.183594 30.621094 C 54.112221 31.058694 54.042185 31.137356 53.8125 31.035156 C 52.506779 30.455556 50.832225 30.349838 49.652344 30.773438 C 49.313901 30.895638 48.974684 30.985656 48.896484 30.972656 C 48.673941 30.936856 48.624207 30.464369 48.759766 29.667969 C 48.894853 28.874269 49.14455 28.476653 49.835938 27.939453 L 50.279297 27.591797 L 50.28125 21.572266 C 50.281849 17.197996 50.341835 15.526044 50.498047 15.464844 C 50.628614 15.413629 50.93507 15.396478 51.273438 15.402344 z M 19.744141 32.642578 C 20.388922 32.694878 21.012982 32.937712 21.521484 33.382812 C 23.216248 34.866812 22.841665 37.454219 20.794922 38.386719 C 19.080924 39.167519 17.037545 38.333994 16.466797 36.621094 C 16.185 35.774794 16.348481 34.520569 16.820312 33.917969 C 17.541722 32.996869 18.669566 32.554578 19.744141 32.642578 z M 51.263672 32.804688 C 51.513526 32.792556 51.764365 32.806228 52.009766 32.845703 C 52.59845 32.942203 53.155968 33.189391 53.59375 33.587891 C 54.147052 34.091591 54.74658 35.562709 54.642578 36.162109 C 54.437539 37.346509 53.418498 38.420069 52.205078 38.730469 C 50.552946 39.152969 48.936271 38.295997 48.410156 36.716797 C 48.065006 35.680797 48.413552 34.341087 49.214844 33.617188 C 49.774474 33.111613 50.514109 32.841081 51.263672 32.804688 z M 35.486328 36.925781 C 35.693137 36.931981 35.902525 36.948656 36.113281 36.972656 L 36.113281 36.970703 C 36.956235 37.066203 37.810882 37.304309 38.515625 37.662109 C 42.089874 39.477109 45.159993 44.533591 46.476562 50.775391 C 46.799489 52.306091 47.243529 56.203828 47.105469 56.298828 C 47.048461 56.337828 42.034387 56.3445 35.964844 56.3125 C 29.895282 56.2805 24.67365 56.265625 24.359375 56.265625 C 23.909851 56.273025 23.773047 56.206737 23.716797 55.960938 C 23.677515 55.788837 23.91805 54.034147 24.253906 52.060547 C 24.768346 49.037647 24.974394 48.180419 25.5625 46.636719 C 27.584611 41.328019 30.29614 38.189547 33.777344 37.123047 C 34.274024 36.970647 34.8659 36.907181 35.486328 36.925781 z M 21.982422 40.419922 C 22.216596 40.345622 22.259352 41.763597 22.041016 42.341797 C 21.92281 42.654697 21.566022 43.115334 21.248047 43.365234 C 20.930061 43.614934 20.648897 43.943803 20.623047 44.095703 C 20.597187 44.247503 20.572159 46.929141 20.568359 50.056641 C 20.564529 53.183941 20.544908 55.846556 20.523438 55.972656 C 20.501951 56.098856 20.267577 56.204844 20.001953 56.214844 C 18.234205 56.265144 18.244583 56.268306 18.220703 55.753906 C 18.208433 55.490006 18.201078 52.711125 18.205078 49.578125 C 18.210809 45.144525 18.157863 43.834075 17.960938 43.671875 C 17.215024 43.057875 16.758984 42.336019 16.677734 41.636719 C 16.629424 41.219919 16.639146 40.7934 16.697266 40.6875 C 16.771066 40.554 17.284479 40.572188 18.410156 40.742188 C 19.985408 40.983187 20.304156 40.954275 21.982422 40.421875 L 21.982422 40.419922 z M 54.052734 40.572266 L 54.148438 41.087891 C 54.328979 42.077091 53.884703 43.100212 53.017578 43.695312 L 52.59375 43.986328 L 52.587891 49.798828 C 52.584731 52.996128 52.593222 55.773403 52.607422 55.970703 C 52.622994 56.187003 52.53128 56.349906 52.376953 56.378906 C 51.8663 56.479606 50.15827 56.347638 50.1875 56.210938 C 50.20362 56.133838 50.226428 53.365547 50.236328 50.060547 L 50.253906 44.052734 L 49.671875 43.554688 C 48.923651 42.915088 48.571601 42.071647 48.710938 41.248047 L 48.822266 40.595703 L 50.480469 40.863281 C 51.920325 41.094681 52.264352 41.093062 53.095703 40.851562 L 54.052734 40.572266 z M 21.333984 58.496094 C 24.841556 58.501844 29.666364 58.517922 34.962891 58.544922 C 45.555911 58.597922 54.429288 58.636 54.683594 58.625 C 54.797057 58.625 54.885059 58.614719 54.949219 58.636719 C 55.142347 58.695919 55.14251 58.956797 55.125 59.966797 C 55.11194 60.716097 55.062708 61.353766 55.017578 61.384766 C 54.972559 61.415766 46.22507 61.395844 35.578125 61.339844 C 24.931194 61.283844 16.076186 61.249766 15.900391 61.259766 C 15.724502 61.270566 15.569124 61.186772 15.552734 61.076172 C 15.482397 60.602072 15.528408 58.568719 15.611328 58.511719 C 15.636309 58.494719 17.826412 58.490344 21.333984 58.496094 z "
       transform="translate(0,981.49606)"
       id="path3348" />
    <g
       style="font-style:normal;font-variant:normal;font-weight:normal;font-stretch:normal;font-size:70px;line-height:125%;font-family:'Linux Libertine Display O';-inkscape-font-specification:'Linux Libertine Display O, Normal';text-align:start;letter-spacing:0px;word-spacing:0px;writing-mode:lr-tb;text-anchor:start;fill:#ffffff;fill-opacity:1;stroke:none;stroke-width:1px;stroke-linecap:butt;stroke-linejoin:miter;stroke-opacity:1"
       id="text4140-3-2"
       transform="translate(-7.2423854,0)" />
  </g>
</svg>
