<?xml version="1.0" encoding="UTF-8" standalone="no"?>
<!-- Created with Inkscape (http://www.inkscape.org/) -->

<svg
   xmlns:dc="http://purl.org/dc/elements/1.1/"
   xmlns:cc="http://creativecommons.org/ns#"
   xmlns:rdf="http://www.w3.org/1999/02/22-rdf-syntax-ns#"
   xmlns:svg="http://www.w3.org/2000/svg"
   xmlns="http://www.w3.org/2000/svg"
   xmlns:sodipodi="http://sodipodi.sourceforge.net/DTD/sodipodi-0.dtd"
   xmlns:inkscape="http://www.inkscape.org/namespaces/inkscape"
   width="20mm"
   height="20mm"
   viewBox="0 0 70.866142 70.866141"
   id="svg2"
   version="1.1"
   inkscape:version="0.91 r13725"
   sodipodi:docname="reaction2.svg"
   inkscape:export-filename="/home/blaize/proj/rpgdice/d20/d20.svg.png"
   inkscape:export-xdpi="1444.9778"
   inkscape:export-ydpi="1444.9778">
  <defs
     id="defs4" />
  <sodipodi:namedview
     id="base"
     pagecolor="#ffffff"
     bordercolor="#000000"
     borderopacity="1"
     inkscape:pageopacity="0.0"
     inkscape:pageshadow="2"
     inkscape:zoom="7.919596"
     inkscape:cx="44.839906"
     inkscape:cy="31.88799"
     inkscape:document-units="px"
     inkscape:current-layer="layer1"
     showgrid="true"
     inkscape:window-width="1600"
     inkscape:window-height="853"
     inkscape:window-x="0"
     inkscape:window-y="0"
     inkscape:window-maximized="1"
     gridtolerance="1"
     guidetolerance="1"
     objecttolerance="1">
    <inkscape:grid
       type="xygrid"
       id="grid4136"
       spacingx="3.5433071"
       empspacing="5"
       units="mm"
       spacingy="3.543307" />
  </sodipodi:namedview>
  <metadata
     id="metadata7">
    <rdf:RDF>
      <cc:Work
         rdf:about="">
        <dc:format>image/svg+xml</dc:format>
        <dc:type
           rdf:resource="http://purl.org/dc/dcmitype/StillImage" />
        <dc:title></dc:title>
      </cc:Work>
    </rdf:RDF>
  </metadata>
  <g
     inkscape:label="Layer 1"
     inkscape:groupmode="layer"
     id="layer1"
     transform="translate(0,-981.49606)">
    <path
       style="color:#000000;clip-rule:nonzero;display:inline;overflow:visible;visibility:visible;opacity:1;isolation:auto;mix-blend-mode:normal;color-interpolation:sRGB;color-interpolation-filters:linearRGB;solid-color:#000000;solid-opacity:1;fill:#000000;fill-opacity:0.99180328;fill-rule:nonzero;stroke:none;stroke-width:1;stroke-linecap:butt;stroke-linejoin:miter;stroke-miterlimit:4;stroke-dasharray:none;stroke-dashoffset:0;stroke-opacity:1;color-rendering:auto;image-rendering:auto;shape-rendering:auto;text-rendering:auto;enable-background:accumulate"
       d="M 35.611328 0.33007812 A 35.254501 35.357143 0 0 0 11.988281 9.4980469 L 26.773438 18.125 C 35.024763 22.94 41.874909 26.901687 41.994141 26.929688 C 42.15147 26.965687 42.414427 26.277269 42.955078 24.417969 C 43.364813 23.008969 43.727369 21.827969 43.761719 21.792969 C 43.796069 21.757969 44.366713 23.650447 45.029297 25.998047 C 45.691881 28.345647 46.291058 30.377672 46.361328 30.513672 C 46.445008 30.675572 47.567009 31.049856 49.611328 31.597656 C 51.341368 32.061156 52.64054 32.483922 52.527344 32.544922 C 52.415027 32.605922 51.31117 32.949094 50.074219 33.308594 C 48.837268 33.668094 47.509088 34.064653 47.123047 34.189453 L 46.421875 34.416016 L 45.189453 38.171875 C 44.511152 40.237475 43.913721 41.927734 43.863281 41.927734 C 43.812841 41.927734 43.504291 40.959091 43.177734 39.775391 C 42.851176 38.591691 42.540138 37.572766 42.486328 37.509766 C 42.432518 37.446766 38.556547 41.263234 33.873047 45.990234 L 25.357422 54.583984 L 26.326172 55.628906 C 26.858602 56.203306 27.272794 56.691844 27.246094 56.714844 C 27.219394 56.737844 25.102179 57.501909 22.542969 58.412109 C 19.983759 59.322309 16.895307 60.421016 15.679688 60.853516 C 14.464058 61.285916 13.470713 61.614984 13.470703 61.583984 C 13.470703 61.552984 14.629645 58.931012 16.046875 55.757812 C 17.464085 52.584613 18.759268 49.676422 18.923828 49.294922 L 19.222656 48.601562 L 20.302734 49.683594 L 21.382812 50.765625 L 23.203125 48.96875 C 27.517123 44.71615 37.355469 34.799125 37.355469 34.703125 C 37.355469 34.645125 35.952138 34.126028 34.236328 33.548828 C 32.142428 32.844528 31.186191 32.454281 31.328125 32.363281 C 31.444429 32.289281 32.831977 31.796178 34.410156 31.267578 C 35.988335 30.738878 37.329545 30.260078 37.390625 30.205078 C 37.451705 30.150078 30.765848 26.169222 22.533203 21.357422 C 14.840527 16.861127 9.3330353 13.612373 8.5078125 13.095703 A 35.254501 35.357143 0 0 0 0.35742188 35.6875 A 35.254501 35.357143 0 0 0 35.611328 71.044922 A 35.254501 35.357143 0 0 0 70.720703 38.572266 A 35.254501 35.357143 0 0 0 70.865234 35.6875 A 35.254501 35.357143 0 0 0 35.611328 0.33007812 z M 48.833984 16.589844 L 48.833984 16.59375 C 52.573873 16.64275 55.765097 17.136753 60.21875 18.314453 L 60.824219 18.474609 L 60.732422 21.787109 C 60.682042 23.609609 60.52757 26.163237 60.390625 27.460938 C 60.253679 28.758738 60.057812 30.350447 59.955078 30.998047 L 59.769531 32.175781 L 54.107422 30.640625 C 50.993717 29.796825 48.34895 29.048563 48.230469 28.976562 C 48.111191 28.904562 47.240272 26.124647 46.279297 22.748047 L 44.544922 16.650391 L 47.193359 16.599609 C 47.755355 16.589609 48.299714 16.579844 48.833984 16.589844 z M 42.695312 16.779297 C 42.812278 16.769297 42.885167 16.778875 42.904297 16.796875 C 42.942457 16.834875 42.538992 18.366772 42.007812 20.201172 C 41.476636 22.035572 40.997259 23.619503 40.943359 23.720703 C 40.878589 23.842403 39.650413 23.20585 37.318359 21.84375 C 35.377626 20.71035 33.789062 19.730016 33.789062 19.666016 C 33.789062 19.449816 35.997221 18.424925 37.613281 17.890625 C 38.928323 17.455925 41.876587 16.826297 42.695312 16.779297 z M 59.664062 32.771484 C 59.817535 32.926384 58.516093 38.449331 57.837891 40.519531 C 56.692617 44.015531 55.467134 46.566653 53.794922 48.939453 C 52.312628 51.042753 49.525154 53.424103 47.539062 54.283203 C 47.127688 54.461203 46.74441 54.605769 46.6875 54.605469 C 46.63059 54.605169 45.952989 54.293009 45.181641 53.912109 C 42.1844 52.432109 39.529476 49.942247 37.673828 46.873047 L 37.019531 45.792969 L 39.164062 43.625 C 40.342993 42.433 41.345218 41.458984 41.392578 41.458984 C 41.439938 41.458984 41.958446 43.148744 42.544922 45.214844 C 43.131398 47.280944 43.663189 48.970703 43.724609 48.970703 C 43.786029 48.970703 44.803691 46.071291 45.986328 42.525391 L 48.136719 36.078125 L 53.869141 34.392578 C 57.021886 33.465378 59.628692 32.735484 59.664062 32.771484 z "
       transform="translate(0,981.49606)"
       id="path3348" />
  </g>
</svg>
