<?xml version="1.0" encoding="UTF-8" standalone="no"?>
<!-- Created with Inkscape (http://www.inkscape.org/) -->

<svg
   xmlns:dc="http://purl.org/dc/elements/1.1/"
   xmlns:cc="http://creativecommons.org/ns#"
   xmlns:rdf="http://www.w3.org/1999/02/22-rdf-syntax-ns#"
   xmlns:svg="http://www.w3.org/2000/svg"
   xmlns="http://www.w3.org/2000/svg"
   xmlns:sodipodi="http://sodipodi.sourceforge.net/DTD/sodipodi-0.dtd"
   xmlns:inkscape="http://www.inkscape.org/namespaces/inkscape"
   width="20mm"
   height="20mm"
   viewBox="0 0 70.866142 70.866141"
   id="svg2"
   version="1.1"
   inkscape:version="0.91 r13725"
   sodipodi:docname="surprise.svg"
   inkscape:export-filename="/home/blaize/proj/rpgdice/numbers/surprise.png"
   inkscape:export-xdpi="1444.9778"
   inkscape:export-ydpi="1444.9778">
  <defs
     id="defs4" />
  <sodipodi:namedview
     id="base"
     pagecolor="#ffffff"
     bordercolor="#000000"
     borderopacity="1"
     inkscape:pageopacity="0.0"
     inkscape:pageshadow="2"
     inkscape:zoom="4"
     inkscape:cx="57.37803"
     inkscape:cy="6.842123"
     inkscape:document-units="px"
     inkscape:current-layer="layer1"
     showgrid="true"
     inkscape:window-width="1600"
     inkscape:window-height="853"
     inkscape:window-x="0"
     inkscape:window-y="0"
     inkscape:window-maximized="1"
     gridtolerance="1"
     guidetolerance="1"
     objecttolerance="1">
    <inkscape:grid
       type="xygrid"
       id="grid4136"
       spacingx="3.5433071"
       empspacing="5"
       units="mm"
       spacingy="3.543307" />
  </sodipodi:namedview>
  <metadata
     id="metadata7">
    <rdf:RDF>
      <cc:Work
         rdf:about="">
        <dc:format>image/svg+xml</dc:format>
        <dc:type
           rdf:resource="http://purl.org/dc/dcmitype/StillImage" />
        <dc:title />
      </cc:Work>
    </rdf:RDF>
  </metadata>
  <g
     inkscape:label="Layer 1"
     inkscape:groupmode="layer"
     id="layer1"
     transform="translate(0,-981.49606)">
    <path
       style="color:#000000;clip-rule:nonzero;display:inline;overflow:visible;visibility:visible;opacity:1;isolation:auto;mix-blend-mode:normal;color-interpolation:sRGB;color-interpolation-filters:linearRGB;solid-color:#000000;solid-opacity:1;fill:#000000;fill-opacity:0.99180328;fill-rule:nonzero;stroke:none;stroke-width:1;stroke-linecap:butt;stroke-linejoin:miter;stroke-miterlimit:4;stroke-dasharray:none;stroke-dashoffset:0;stroke-opacity:1;color-rendering:auto;image-rendering:auto;shape-rendering:auto;text-rendering:auto;enable-background:accumulate"
       d="M 35.572266 0.26953125 C 15.727067 0.26953125 -0.36129769 16.047176 -0.36132812 35.509766 C -0.36136847 48.410291 6.7100882 59.687192 17.255859 65.828125 C 20.240393 67.653877 23.532062 69.058299 27.0625 69.943359 C 27.059521 69.884991 27.053846 69.804062 27.050781 69.744141 C 29.783308 70.39612 32.635184 70.75 35.572266 70.75 C 38.408324 70.75 41.150971 70.425918 43.775391 69.830078 C 43.752769 69.904024 43.734382 69.984223 43.710938 70.056641 C 48.389177 68.948991 52.659265 66.930285 56.363281 64.222656 C 65.217253 57.932151 70.871131 47.658214 70.871094 35.890625 C 70.871094 35.82253 70.865612 35.755513 70.865234 35.6875 C 70.861449 35.006415 70.836078 34.330512 70.794922 33.658203 C 70.782512 33.450244 70.766068 33.242806 70.75 33.035156 C 70.712599 32.558703 70.665148 32.084635 70.609375 31.613281 C 70.579822 31.362945 70.550509 31.112924 70.515625 30.863281 C 70.436426 30.295882 70.345559 29.73279 70.240234 29.173828 C 70.222634 29.080885 70.209752 28.987341 70.191406 28.894531 C 70.052904 28.19002 69.889898 27.494256 69.710938 26.804688 C 69.704345 26.779465 69.700008 26.753725 69.693359 26.728516 L 69.689453 26.730469 C 68.718061 23.020482 67.171829 19.539399 65.142578 16.396484 C 65.140522 16.3933 65.138776 16.389903 65.136719 16.386719 C 58.894616 6.725669 48.112803 0.26953125 35.572266 0.26953125 z M 35.554688 2.1523438 C 38.55081 2.1523438 41.439423 2.5426832 44.181641 3.2714844 L 38.773438 16.394531 C 37.647416 20.159441 36.678741 23.294328 36.619141 23.361328 C 36.559561 23.428228 35.930013 20.441736 35.220703 16.722656 C 34.718564 14.089811 32.628326 7.1208073 31.232422 2.4296875 C 32.648886 2.2533844 34.0894 2.1523438 35.554688 2.1523438 z M 29.902344 2.6191406 C 29.997555 7.3332778 29.95173 11.948336 29.853516 16.921875 C 29.950886 20.931775 30.013187 24.230953 29.992188 24.251953 C 29.971187 24.272953 28.143287 20.991868 25.929688 16.960938 L 18.669922 6.5566406 C 22.08674 4.6358404 25.873156 3.280432 29.902344 2.6191406 z M 45.642578 3.6953125 C 49.332702 4.8609794 52.729957 6.6483127 55.722656 8.9335938 L 48.546875 17.173828 C 45.665155 21.321908 43.236391 24.788 43.150391 24.875 C 43.050891 24.9761 43.024875 24.85657 43.080078 24.546875 C 43.127748 24.279075 43.576052 20.816812 44.076172 16.851562 C 44.416285 14.154888 45.106255 8.1980825 45.642578 3.6953125 z M 17.460938 7.2675781 L 20.847656 18.166016 C 22.501966 22.904536 23.828222 26.807844 23.794922 26.839844 C 23.748607 26.884448 14.403133 18.527152 9.5664062 13.998047 C 11.824697 11.376611 14.487584 9.1037269 17.460938 7.2675781 z M 56.675781 9.6972656 C 59.391584 11.933279 61.739718 14.591649 63.638672 17.566406 L 57.09375 22.714844 C 52.94563 25.889344 49.091384 28.220469 49.021484 28.230469 C 48.951574 28.236469 48.994847 28.039016 49.117188 27.791016 C 49.239528 27.543116 51.210537 23.337343 53.498047 18.445312 L 56.675781 9.6972656 z M 9.0820312 14.574219 C 11.654653 18.931069 18.514358 30.821762 18.783203 31.291016 C 18.855203 31.417716 18.892235 31.519766 18.865234 31.509766 C 18.838204 31.503366 16.197357 30.260547 12.996094 28.748047 L 3.6113281 24.025391 C 4.9034752 20.569787 6.7674711 17.385711 9.0820312 14.574219 z M 64.400391 18.814453 C 65.952943 21.495545 67.152673 24.404953 67.929688 27.480469 L 58.986328 31.291016 C 56.100678 32.306816 53.644134 33.146484 53.527344 33.146484 C 53.410544 33.151284 55.44011 30.067116 58.34375 26.978516 C 59.759795 25.472318 62.192464 22.041646 64.400391 18.814453 z M 27.207031 28.556641 C 27.575861 28.573841 27.903741 28.714409 28.212891 28.974609 C 28.990936 29.629209 28.997904 30.040166 28.25 31.197266 C 27.29132 32.680566 26.608809 34.564775 26.037109 37.296875 C 25.912389 37.892875 24.633381 38.819466 23.587891 39.072266 C 23.037581 39.205366 21.809424 39.9101 19.677734 41.3125 C 17.148114 42.9766 16.610116 43.394994 16.791016 43.558594 C 17.130966 43.865994 30.573059 51.246094 30.792969 51.246094 C 30.899009 51.246094 31.255707 51.0791 31.585938 50.875 L 32.1875 50.503906 L 31.203125 49.451172 C 30.073105 48.243072 29.097824 46.383906 28.542969 44.378906 C 28.234939 43.265806 28.181641 42.656578 28.181641 40.205078 C 28.181641 37.770178 28.235141 37.142947 28.535156 36.060547 C 29.047501 34.212147 30.086357 32.203553 31.117188 31.064453 C 33.825927 28.071253 37.145921 27.818078 39.962891 30.392578 C 41.427381 31.731078 42.595908 33.839316 43.267578 36.353516 C 43.731818 38.091416 43.688734 42.574706 43.191406 44.378906 C 42.621686 46.445706 41.661592 48.252056 40.451172 49.535156 C 39.868642 50.152656 39.392578 50.697094 39.392578 50.746094 C 39.392578 50.795394 39.651527 50.996606 39.966797 51.191406 L 40.539062 51.544922 L 47.712891 47.583984 C 51.658461 45.405384 54.945178 43.566094 55.017578 43.496094 C 55.089918 43.426594 53.7747 42.465475 52.09375 41.359375 C 49.87298 39.898075 48.784288 39.281169 48.111328 39.105469 C 46.879898 38.783869 45.913699 38.122747 45.761719 37.498047 C 45.696259 37.228947 45.522323 36.497547 45.376953 35.873047 C 44.979723 34.166547 44.200794 32.274684 43.402344 31.083984 C 42.605594 29.895784 42.60767 29.552964 43.419922 28.914062 C 45.124492 27.573263 48.695539 30.5427 49.912109 34.3125 L 50.257812 35.386719 L 52.234375 36.361328 C 55.800915 38.121728 63.730799 42.754072 63.730469 43.076172 C 63.730369 43.166372 59.734583 46.63315 54.851562 50.78125 C 49.968542 54.92935 45.930353 58.366875 45.876953 58.421875 C 45.801503 58.499175 44.476562 65.700703 44.476562 66.033203 C 44.425042 66.654347 44.346775 67.228245 44.253906 67.777344 C 41.490032 68.487339 38.577372 68.867188 35.554688 68.867188 C 32.577481 68.867188 29.691509 68.489845 26.939453 67.785156 C 26.828306 65.817269 26.695453 63.781798 26.523438 62.996094 C 26.197668 61.508194 25.817457 59.792794 25.679688 59.183594 L 25.429688 58.076172 L 16.794922 50.757812 C 12.045434 46.733013 8.0605031 43.348228 7.9394531 43.236328 C 7.7603531 43.070728 8.309965 42.681578 10.890625 41.142578 C 14.742275 38.845678 17.081337 37.537731 19.498047 36.332031 C 21.317607 35.424231 21.328092 35.416687 21.513672 34.679688 C 21.959172 32.910488 23.557495 30.488925 24.921875 29.515625 C 25.865385 28.842525 26.592331 28.527641 27.207031 28.556641 z M 34.392578 35.574219 L 33.408203 35.671875 C 32.434423 35.767175 31.033154 36.089616 30.177734 36.416016 L 29.736328 36.583984 L 30.076172 37.589844 C 30.374562 38.473144 30.456692 38.582094 30.763672 38.496094 C 31.515572 38.285294 33.110521 37.923031 33.681641 37.832031 L 34.283203 37.736328 L 34.337891 36.65625 L 34.392578 35.574219 z M 37.789062 35.607422 L 37.8125 36.757812 C 37.83308 37.787712 37.87068 37.911875 38.164062 37.921875 C 38.344414 37.928375 38.970491 38.067269 39.556641 38.230469 C 41.133861 38.669669 41.214729 38.641803 41.542969 37.533203 L 41.824219 36.580078 L 41.386719 36.414062 C 40.933189 36.241464 39.422429 35.886084 38.386719 35.708984 L 37.789062 35.607422 z M 35.439453 40.607422 C 34.025576 40.703642 32.651726 41.482972 31.908203 43.076172 C 31.487953 43.976672 31.385922 45.559866 31.695312 46.384766 C 32.140572 47.571866 33.108176 48.513959 34.384766 49.005859 C 35.017746 49.249859 36.342436 49.272739 37.134766 49.052734 C 38.795056 48.591634 40.111422 46.755856 40.107422 44.910156 C 40.101722 42.323156 38.123115 40.748922 36.046875 40.607422 C 35.845018 40.593662 35.641436 40.593667 35.439453 40.607422 z "
       transform="translate(0,981.49606)"
       id="path3348" />
    <g
       style="font-style:normal;font-variant:normal;font-weight:normal;font-stretch:normal;font-size:70px;line-height:125%;font-family:'Linux Libertine Display O';-inkscape-font-specification:'Linux Libertine Display O, Normal';text-align:start;letter-spacing:0px;word-spacing:0px;writing-mode:lr-tb;text-anchor:start;fill:#ffffff;fill-opacity:1;stroke:none;stroke-width:1px;stroke-linecap:butt;stroke-linejoin:miter;stroke-opacity:1"
       id="text4140-3-2"
       transform="translate(72.757615,0)" />
  </g>
</svg>
